HIERARCHY
ROOT Hips
{
	OFFSET 0.000000 0.000000 0.000000
	CHANNELS 6 Xposition Yposition Zposition Zrotation Yrotation Xrotation 
	JOINT LHipJoint
	{
		OFFSET 0.000000 0.000000 0.000000
		CHANNELS 3 Zrotation Yrotation Xrotation
		JOINT LeftUpLeg
		{
			OFFSET 1.363060 -1.794630 0.839290
			CHANNELS 3 Zrotation Yrotation Xrotation
			JOINT LeftLeg
			{
				OFFSET 2.448110 -6.726130 0.000000
				CHANNELS 3 Zrotation Yrotation Xrotation
				JOINT LeftFoot
				{
					OFFSET 2.562200 -7.039590 0.000000
					CHANNELS 3 Zrotation Yrotation Xrotation
					JOINT LeftToeBase
					{
						OFFSET 0.157640 -0.433110 2.322550
						CHANNELS 3 Zrotation Yrotation Xrotation
						End Site
						{
							OFFSET 0.000000 0.000000 0.000000
						}
					}
				}
			}
		}
	}
	JOINT RHipJoint
	{
		OFFSET 0.000000 0.000000 0.000000
		CHANNELS 3 Zrotation Yrotation Xrotation
		JOINT RightUpLeg
		{
			OFFSET -1.305520 -1.794630 0.839290
			CHANNELS 3 Zrotation Yrotation Xrotation
			JOINT RightLeg
			{
				OFFSET -2.542530 -6.985550 0.000000
				CHANNELS 3 Zrotation Yrotation Xrotation
				JOINT RightFoot
				{
					OFFSET -2.568260 -7.056230 0.000000
					CHANNELS 3 Zrotation Yrotation Xrotation
					JOINT RightToeBase
					{
						OFFSET -0.164730 -0.452590 2.363150
						CHANNELS 3 Zrotation Yrotation Xrotation
						End Site
						{
							OFFSET 0.000000 0.000000 0.000000
						}
					}
				}
			}
		}
	}
}
MOTION
Frames: 14
Frame Time: 0.008333
5.297291 17.382477 0.480036 4.022364 -66.464801 7.389569 -10.333086 1.150155 3.137516 -5.857461 0.945214 -14.823134 -2.718195 -1.533643 -2.985054 -0.464112 -1.860259 6.996127 0.043400 0.000000 -30.691600 9.848893 -2.530649 0.975912 7.698151 -9.847612 -9.460162 1.755127 1.264266 -1.111776 -1.533478 -15.123334 -5.439014 -3.237700 0.000001 -25.004600
5.300717 17.381992 0.486912 3.999956 -67.056934 7.249669 -10.365714 1.179292 3.078791 -5.857848 1.285783 -14.651992 -2.698739 -1.519535 -2.913465 -0.437449 -1.678828 6.830417 0.080700 0.000000 -30.701100 9.827508 -2.528817 0.985910 7.649803 -9.755732 -9.330711 1.778069 1.262400 -1.103817 -1.492179 -14.777824 -5.332520 -3.183000 0.000000 -25.220301
5.303041 17.382110 0.495379 3.980689 -67.667708 7.124724 -10.395957 1.214395 3.030733 -5.870289 1.650181 -14.515524 -2.683606 -1.508080 -2.840428 -0.412971 -1.514494 6.668746 0.113700 0.000000 -30.687900 9.810259 -2.531555 1.009977 7.601258 -9.685282 -9.233778 1.805848 1.264781 -1.119285 -1.449678 -14.391582 -5.191041 -3.123499 0.000000 -25.482700
5.304245 17.382719 0.505342 3.966245 -68.289493 7.010767 -10.423459 1.255007 2.994830 -5.891591 2.019701 -14.399848 -2.671723 -1.499676 -2.780239 -0.389746 -1.355693 6.515459 0.145201 0.000000 -30.652600 9.796712 -2.537878 1.045808 7.551072 -9.632553 -9.163749 1.836984 1.270546 -1.153343 -1.406158 -13.977033 -5.021189 -3.061000 0.000000 -25.789600
5.304567 17.383651 0.516636 3.956855 -68.915242 6.904611 -10.448387 1.300173 2.969605 -5.921283 2.389859 -14.302996 -2.662779 -1.493661 -2.730328 -0.367899 -1.205802 6.368358 0.174500 -0.000000 -30.598200 9.786160 -2.546387 1.091737 7.498580 -9.590297 -9.115836 1.869772 1.279197 -1.201828 -1.362558 -13.549491 -4.831224 -2.997400 -0.000000 -26.133600
5.304107 17.384733 0.529059 3.956337 -69.540187 6.802694 -10.471089 1.348580 2.952923 -5.957930 2.752309 -14.218100 -2.656000 -1.489578 -2.692431 -0.346892 -1.060801 6.225983 0.202300 0.000000 -30.528200 9.777646 -2.555506 1.145140 7.442625 -9.548952 -9.083696 1.902389 1.290038 -1.260617 -1.320160 -13.124151 -4.629230 -2.934799 -0.000000 -26.507600
5.303090 17.385774 0.542397 3.969109 -70.161662 6.699576 -10.492156 1.398584 2.941536 -6.000263 3.101967 -14.139341 -2.650629 -1.486725 -2.665842 -0.326234 -0.917816 6.086140 0.229301 0.000000 -30.445900 9.770096 -2.563455 1.203152 7.381746 -9.498025 -9.060683 1.933088 1.302324 -1.325738 -1.279983 -12.714668 -4.423334 -2.874800 -0.000000 -26.903700
5.301981 17.386579 0.556398 3.995772 -70.778852 6.590851 -10.512183 1.448396 2.932057 -6.046953 3.435497 -14.061166 -2.645816 -1.484436 -2.649615 -0.305340 -0.772872 5.946394 0.256200 -0.000000 -30.355101 9.762454 -2.568658 1.263150 7.314846 -9.427362 -9.040645 1.960410 1.315223 -1.392982 -1.243027 -12.332581 -4.220973 -2.819100 0.000000 -27.314700
5.300915 17.387027 0.570897 4.039903 -71.391999 6.473203 -10.531608 1.496794 2.921587 -6.097139 3.751756 -13.979661 -2.641009 -1.482236 -2.642574 -0.283740 -0.622752 5.805083 0.283500 0.000000 -30.259000 9.754046 -2.570017 1.323466 7.240954 -9.327957 -9.019619 1.983265 1.328166 -1.459083 -1.209883 -11.985910 -4.028184 -2.768800 -0.000000 -27.733100
5.300101 17.387029 0.585697 4.103050 -72.002606 6.343957 -10.550805 1.542767 2.907747 -6.150081 4.051848 -13.892832 -2.635865 -1.479778 -2.643465 -0.261173 -0.466080 5.660574 0.311400 0.000000 -30.160199 9.744381 -2.566792 1.382845 7.159465 -9.193724 -8.994921 2.001076 1.340658 -1.520790 -1.180722 -11.678638 -3.849595 -2.724499 0.000000 -28.152200
5.299631 17.386601 0.600698 4.185661 -72.611448 6.202130 -10.569980 1.585823 2.889055 -6.205056 4.337270 -13.799446 -2.630126 -1.476823 -2.651754 -0.237428 -0.301280 5.513250 0.340100 -0.000000 -30.061300 9.733249 -2.558631 1.440342 7.070716 -9.022682 -8.966398 2.013894 1.352302 -1.574948 -1.155013 -11.410234 -3.687961 -2.686400 -0.000000 -28.566200
5.299520 17.385692 0.615744 4.289453 -73.221761 6.045750 -10.589398 1.626068 2.864071 -6.263399 4.617359 -13.702451 -2.624328 -1.473234 -2.664880 -0.212970 -0.133578 5.362785 0.368500 0.000000 -29.963000 9.720603 -2.545560 1.496567 6.974760 -8.813078 -8.936341 2.021972 1.362968 -1.618032 -1.131854 -11.178147 -3.546218 -2.654400 0.000000 -28.971200
5.299619 17.384459 0.630860 4.411698 -73.832084 5.879235 -10.608828 1.663714 2.833826 -6.323625 4.890608 -13.602745 -2.618367 -1.469272 -2.685671 -0.187725 0.039064 5.212589 0.396999 -0.000000 -29.867800 9.706798 -2.528063 1.550837 6.873684 -8.572591 -8.908786 2.026536 1.372547 -1.648076 -1.110004 -10.974153 -3.423093 -2.627600 0.000000 -29.363500
5.299797 17.382955 0.645967 4.552663 -74.444204 5.701798 -10.628325 1.699611 2.798306 -6.387848 5.168210 -13.505548 -2.613227 -1.465033 -2.711737 -0.162618 0.207861 5.063391 0.423899 0.000000 -29.774700 9.692175 -2.506847 1.604446 6.768394 -8.305660 -8.888890 2.028532 1.381046 -1.661529 -1.087554 -10.790600 -3.319165 -2.605100 -0.000000 -29.741900
